<svg fill="#000000" xmlns="http://www.w3.org/2000/svg"  viewBox="0 0 30 30" width="30px" height="30px"><path d="M 14.501953 3.0097656 A 12 12 0 0 0 15 27 A 12 12 0 0 0 27 15 A 12 12 0 0 0 14.501953 3.0097656 z M 15 5 A 10 10 0 0 1 25 15 A 10 10 0 1 1 15 5 z M 11.984375 10.996094 A 1.0040916 1.0040916 0 0 0 11.289062 12.710938 L 13.589844 15 L 11.289062 17.289062 A 1 1 0 0 0 11.289062 18.710938 A 1 1 0 0 0 12.710938 18.710938 L 15 16.410156 L 17.289062 18.710938 A 1 1 0 0 0 18.710938 18.710938 A 1 1 0 0 0 18.710938 17.289062 L 16.410156 15 L 18.710938 12.710938 A 1.0040916 1.0040916 0 0 0 17.289062 11.289062 L 15 13.589844 L 12.710938 11.289062 A 1.0040916 1.0040916 0 0 0 11.984375 10.996094 z"/></svg>