<?xml version="1.0" encoding="UTF-8"?>
<svg xmlns="http://www.w3.org/2000/svg" xmlns:xlink="http://www.w3.org/1999/xlink" viewBox="0 0 30 30" width="30px" height="30px">
<g id="surface1827328">
<path style=" stroke:none;fill-rule:nonzero;fill:rgb(90.588236%,29.803923%,23.529412%);fill-opacity:1;" d="M 9 4.199219 C 4.699219 4.199219 1.199219 7.699219 1.199219 12 C 1.199219 20.855469 11.21875 25.226562 14.625 28.070312 L 15 28.386719 L 15.375 28.070312 C 18.78125 25.226562 28.800781 20.855469 28.800781 12 C 28.800781 7.699219 25.300781 4.199219 21 4.199219 C 18.566406 4.199219 16.429688 5.355469 15 7.105469 C 13.570312 5.355469 11.433594 4.199219 9 4.199219 Z M 9 5.398438 C 11.300781 5.398438 13.3125 6.582031 14.492188 8.363281 L 15 9.113281 L 15.507812 8.363281 C 16.6875 6.582031 18.699219 5.398438 21 5.398438 C 24.652344 5.398438 27.601562 8.347656 27.601562 12 C 27.601562 19.738281 18.957031 23.746094 15 26.867188 C 11.042969 23.746094 2.398438 19.738281 2.398438 12 C 2.398438 8.347656 5.347656 5.398438 9 5.398438 Z M 9 5.398438 "/>
</g>
</svg>
