<svg fill="#4a90e2" xmlns="http://www.w3.org/2000/svg"  viewBox="0 0 48 48" width="64px" height="64px"><path d="M40 46H27.41406l-1.707-1.707a.99962.99962 0 00-1.41406 0L22.58594 46H9.33228l4.91479-2.27734a1.00679 1.00679 0 00.38281-.31153C24.98871 29.42646 33.13108 18.434 39.80957 9.418a2.96649 2.96649 0 00-.61816-4.15039L32.86621.583a2.97127 2.97127 0 00-4.14941.61816h-.001c-.8704 1.175-12.4638 16.82594-25.17969 33.99219a.995.995 0 00-.18652.458l-1.3252 9.52929A2.48157 2.48157 0 004.52246 48H23a.99927.99927 0 00.707-.293L25 46.41406l1.293 1.293A.99928.99928 0 0027 48H40a1 1 0 000-2zM13.6181 41.41711l-3.1358-2.32269 18.71905-25.27 3.13483 2.32245zm-7.87957-5.8363L24.45807 10.3103l3.13562 2.32306L8.87445 37.90356zM26.80023 7.14844l7.8783 5.83612L33.527 14.53912c-.26042-.19293-5.26535-3.90091-7.878-5.83654zm3.523-4.75586a.96886.96886 0 011.35254-.20215L38.001 6.875a.9666.9666 0 01.20117 1.35254l-2.3327 3.14923L27.99121 5.54071zM4.00488 45.45605l1.0932-7.86114c1.95563 1.44848 3.61911 2.68058 6.77973 5.02161l-7.202 3.33661a.47617.47617 0 01-.6709-.49708zM45 46H43a1 1 0 000 2h2a1 1 0 000-2z"/></svg>